<svg width="42" height="42" viewBox="0 0 42 42" fill="none" xmlns="http://www.w3.org/2000/svg">
<path d="M9.93964 16.9744C9.94501 14.6461 11.2299 9.78707 16.3267 8.97708C21.4234 8.16708 24.0353 11.7846 24.7161 13.7037" stroke="white" stroke-width="2.54112"/>
<path d="M23.7506 14.4415C26.4845 12.9637 32.0354 11.6197 35.8217 15.1265C36.5709 15.8204 37.1237 16.5461 37.5201 17.2771" stroke="white" stroke-width="2.54112"/>
<path d="M3.04834 24.6586C3.04834 23.484 3.30245 22.4393 3.81068 21.5245C4.3189 20.5984 5.02477 19.8813 5.92828 19.373C6.84308 18.8535 7.87647 18.5938 9.02844 18.5938C10.4402 18.5938 11.6486 18.9664 12.6538 19.7118C13.6589 20.4572 14.3309 21.4737 14.6697 22.7612H11.4849C11.2477 22.2643 10.9089 21.8859 10.4684 21.6262C10.0392 21.3664 9.54796 21.2365 8.99456 21.2365C8.10235 21.2365 7.37954 21.5471 6.82614 22.1683C6.27274 22.7894 5.99604 23.6195 5.99604 24.6586C5.99604 25.6976 6.27274 26.5277 6.82614 27.1489C7.37954 27.77 8.10235 28.0806 8.99456 28.0806C9.54796 28.0806 10.0392 27.9507 10.4684 27.691C10.9089 27.4312 11.2477 27.0529 11.4849 26.5559H14.6697C14.3309 27.8434 13.6589 28.8599 12.6538 29.6053C11.6486 30.3394 10.4402 30.7064 9.02844 30.7064C7.87647 30.7064 6.84308 30.4523 5.92828 29.9441C5.02477 29.4246 4.3189 28.7074 3.81068 27.7926C3.30245 26.8778 3.04834 25.8331 3.04834 24.6586Z" fill="white"/>
<path d="M22.5086 30.6217L20.0352 26.1324H19.3406V30.6217H16.4438V18.7293H21.3058C22.2432 18.7293 23.0394 18.893 23.6944 19.2206C24.3608 19.5481 24.8577 19.9998 25.1852 20.5758C25.5127 21.1405 25.6765 21.773 25.6765 22.4732C25.6765 23.2638 25.4506 23.9696 24.9989 24.5908C24.5584 25.212 23.9034 25.6524 23.0337 25.9122L25.7781 30.6217H22.5086ZM19.3406 24.0826H21.1364C21.6672 24.0826 22.0625 23.9527 22.3222 23.6929C22.5933 23.4332 22.7288 23.0661 22.7288 22.5918C22.7288 22.14 22.5933 21.7843 22.3222 21.5245C22.0625 21.2648 21.6672 21.1349 21.1364 21.1349H19.3406V24.0826Z" fill="white"/>
<path d="M40.9629 18.7293V30.6217H38.066V23.4896L35.4063 30.6217H33.0685L30.3919 23.4727V30.6217H27.495V18.7293H30.917L34.2544 26.9625L37.5578 18.7293H40.9629Z" fill="white"/>
</svg>
