<svg width="24" height="24" viewBox="0 0 24 24" fill="none" xmlns="http://www.w3.org/2000/svg">
<path d="M23.8462 11.9231C23.8462 5.30769 18.5385 0 11.9231 0C5.30769 0 0 5.30769 0 11.9231C0 15.5385 1.61538 18.6923 4.07692 20.9231L4.23077 21.2308C4.23077 21.2308 4.30769 21.2308 4.30769 21.1538C6.38462 22.8462 9 23.9231 11.9231 23.9231C18 23.9231 23 19.3846 23.7692 13.4615H23.8462V11.9231ZM22.3846 11.9231H18.6923C18.6923 9.69231 18.3846 7.61538 17.7692 5.84615C17.8462 5.76923 17.9231 5.76923 18 5.69231C18.1538 5.61538 18.9231 5.15385 19.0769 5C19.2308 4.92308 19.3846 4.84615 19.5385 4.69231C21.3077 6.61538 22.3846 9.15385 22.3846 11.9231ZM17.6923 19.7692C17.9231 19.9231 18.1538 20.0769 18.3846 20.1538C17.6154 20.6923 16.8462 21.2308 15.9231 21.5385C16.3846 20.9231 16.8462 20.2308 17.1538 19.4615C17.3077 19.5385 17.5385 19.6923 17.6923 19.7692ZM6.84615 19.6923C7.15385 20.3846 7.53846 21 8 21.5385C7.23077 21.2308 6.46154 20.7692 5.84615 20.3077C6.15385 20.1538 6.61539 19.8462 6.76923 19.7692C6.76923 19.7692 6.76923 19.6923 6.84615 19.6923ZM6.69231 11.9231C6.69231 10 7 8.15385 7.46154 6.61538C8.61539 7 9.84615 7.23077 11.1538 7.23077V11.9231H6.69231ZM6.23077 4.46154C5.84615 4.23077 5.53846 4.07692 5.30769 3.84615C6.07692 3.15385 7 2.61538 8 2.23077C7.46154 2.92308 7 3.76923 6.61539 4.61538C6.46154 4.61538 6.30769 4.53846 6.23077 4.46154ZM17.1538 4.38462C16.7692 3.53846 16.3846 2.84615 15.8462 2.23077C16.7692 2.61538 17.5385 3.07692 18.3077 3.69231C18.3077 3.69231 18.2308 3.69231 18.2308 3.76923C18.0769 3.84615 17.3846 4.30769 17.1538 4.38462ZM12.6923 1.61538C13.9231 2 15.0769 3.23077 15.8462 5.07692C14.9231 5.46154 14 5.61538 12.6923 5.69231V1.61538ZM11.1538 1.61538V5.76923C10 5.76923 8.92308 5.53846 7.92308 5.23077C8.76923 3.30769 9.92308 2 11.1538 1.61538ZM11.1538 13.3846V16.9231C9.69231 17 8.61539 17.2308 7.53846 17.6154C7.15385 16.3846 6.84615 14.9231 6.69231 13.3846H11.1538ZM11.1538 18.4615V22.2308C10 21.8462 8.92308 20.6923 8.15385 19.0769C9 18.6923 9.92308 18.5385 11.1538 18.4615ZM12.6923 22.2308V18.4615C13.7692 18.4615 14.8462 18.6154 15.7692 18.9231C14.9231 20.6923 13.8462 21.8462 12.6923 22.2308ZM12.6923 16.9231V13.3846H17.0769C17 14.9231 16.6923 16.3077 16.3077 17.5385C15.1538 17.1538 14 17 12.6923 16.9231ZM12.6923 11.9231V7.23077C14.2308 7.15385 15.3077 6.92308 16.3846 6.53846C16.8462 8.15385 17.1538 10 17.1538 12H12.6923V11.9231ZM4.23077 4.92308C4.61538 5.15385 5 5.46154 5.53846 5.76923C5.69231 5.84615 5.84615 5.92308 6.07692 6.07692C5.53846 7.84615 5.23077 9.84615 5.23077 11.9231H1.46154C1.46154 9.23077 2.53846 6.76923 4.23077 4.92308ZM1.61538 13.3846H5.30769C5.38462 15.2308 5.76923 16.8462 6.23077 18.3077C6.15385 18.3846 6 18.4615 5.92308 18.4615C5.76923 18.5385 5 19 4.84615 19.1538C4.76923 19.2308 4.69231 19.2308 4.53846 19.3077C3 17.7692 1.92308 15.6923 1.61538 13.3846ZM19.4615 19.1538C19.1538 18.9231 18.7692 18.6923 18.3846 18.4615C18.1538 18.3077 17.9231 18.2308 17.6923 18.0769C18.1538 16.6923 18.4615 15.0769 18.6154 13.3846H22.3077C21.9231 15.6154 20.9231 17.6154 19.4615 19.1538Z" fill="white"/>
</svg>
