<svg width="18" height="18" viewBox="0 0 18 18" fill="none" xmlns="http://www.w3.org/2000/svg">
<path d="M9.00016 3.50756C10.8982 3.50756 11.1242 3.51456 11.8742 3.54956C13.8012 3.63756 14.7012 4.55156 14.7892 6.46456C14.8232 7.21456 14.8292 7.43956 14.8292 9.33756C14.8292 11.2376 14.8232 11.4616 14.7892 12.2116C14.7012 14.1216 13.8032 15.0386 11.8742 15.1266C11.1242 15.1606 10.9002 15.1676 9.00016 15.1676C7.10116 15.1676 6.87616 15.1606 6.12616 15.1266C4.19416 15.0376 3.29916 14.1196 3.21116 12.2106C3.17716 11.4606 3.17016 11.2366 3.17016 9.33756C3.17016 7.43856 3.17816 7.21356 3.21116 6.46356C3.30016 4.55156 4.19716 3.63656 6.12616 3.54856C6.87616 3.51456 7.10116 3.50756 9.00016 3.50756ZM9.00016 2.22656C7.06916 2.22656 6.82716 2.23456 6.06816 2.26856C3.48616 2.38756 2.05016 3.82056 1.93216 6.40556C1.89716 7.16456 1.88916 7.40556 1.88916 9.33756C1.88916 11.2686 1.89716 11.5106 1.93116 12.2696C2.05016 14.8516 3.48316 16.2876 6.06816 16.4056C6.82716 16.4406 7.06816 16.4486 9.00016 16.4486C10.9312 16.4486 11.1732 16.4406 11.9322 16.4056C14.5122 16.2876 15.9512 14.8546 16.0682 12.2696C16.1032 11.5106 16.1112 11.2686 16.1112 9.33756C16.1112 7.40556 16.1032 7.16456 16.0682 6.40556C15.9522 3.82556 14.5182 2.38756 11.9322 2.26956C11.1732 2.23456 10.9312 2.22656 9.00016 2.22656ZM9.00016 5.68656C8.51555 5.67854 8.0342 5.76707 7.58415 5.94697C7.1341 6.12687 6.72437 6.39456 6.37883 6.73443C6.03329 7.0743 5.75886 7.47955 5.57153 7.92656C5.38421 8.37356 5.28773 8.85339 5.28773 9.33806C5.28773 9.82274 5.38421 10.3026 5.57153 10.7496C5.75886 11.1966 6.03329 11.6018 6.37883 11.9417C6.72437 12.2816 7.1341 12.5493 7.58415 12.7292C8.0342 12.9091 8.51555 12.9976 9.00016 12.9896C9.96873 12.9896 10.8976 12.6048 11.5825 11.9199C12.2674 11.235 12.6522 10.3061 12.6522 9.33756C12.6522 8.36899 12.2674 7.44009 11.5825 6.75521C10.8976 6.07033 9.96873 5.68656 9.00016 5.68656ZM9.00016 11.7076C8.3716 11.7076 7.76878 11.4579 7.32432 11.0134C6.87986 10.5689 6.63016 9.96613 6.63016 9.33756C6.63016 8.709 6.87986 8.10618 7.32432 7.66172C7.76878 7.21726 8.3716 6.96756 9.00016 6.96756C9.62872 6.96756 10.2315 7.21726 10.676 7.66172C11.1205 8.10618 11.3702 8.709 11.3702 9.33756C11.3702 9.96613 11.1205 10.5689 10.676 11.0134C10.2315 11.4579 9.62872 11.7076 9.00016 11.7076ZM12.7962 4.68756C12.5697 4.68756 12.3524 4.77754 12.1923 4.93769C12.0321 5.09785 11.9422 5.31507 11.9422 5.54156C11.9422 5.76806 12.0321 5.98528 12.1923 6.14543C12.3524 6.30559 12.5697 6.39556 12.7962 6.39556C13.0175 6.38799 13.2272 6.29475 13.3811 6.13551C13.5349 5.97628 13.6209 5.7635 13.6209 5.54206C13.6209 5.32063 13.5349 5.10785 13.3811 4.94861C13.2272 4.78938 13.0175 4.69614 12.7962 4.68856V4.68756Z" fill="white"/>
</svg>
