<svg width="18" height="18" viewBox="0 0 18 18" fill="none" xmlns="http://www.w3.org/2000/svg">
<path d="M5.13 15.2846H2.358V6.41356H5.13V15.2846ZM3.674 5.30456H3.654C2.651 5.30456 2 4.62456 2 3.76656C2 2.89056 2.67 2.22656 3.694 2.22656C4.716 2.22656 5.345 2.88856 5.365 3.76356C5.365 4.62356 4.715 5.30456 3.674 5.30456ZM16.222 15.2846H13.08V10.6946C13.08 9.49256 12.59 8.67356 11.507 8.67356C10.679 8.67356 10.22 9.22656 10.007 9.75956C9.927 9.94956 9.938 10.2176 9.938 10.4846V15.2846H6.823C6.823 15.2846 6.863 7.15256 6.823 6.41356H9.937V7.80556C10.121 7.19656 11.117 6.32756 12.705 6.32756C14.675 6.32756 16.222 7.60356 16.222 10.3516V15.2846Z" fill="white"/>
</svg>
