<svg width="148" height="48" viewBox="0 0 148 48" fill="none" xmlns="http://www.w3.org/2000/svg">
<path d="M122.28 18.7292C122.28 14.371 125.813 10.8379 130.172 10.8379H148V28.6664C148 33.0247 144.467 36.5578 140.109 36.5578H130.172C125.813 36.5578 122.28 33.0247 122.28 28.6664V18.7292Z" fill="black"/>
<path d="M138.329 22.6747V15.9525C138.329 14.9033 137.478 14.0527 136.429 14.0527H133.821C132.771 14.0527 131.921 14.9033 131.921 15.9525V22.6747H138.329Z" fill="#00C1F3"/>
<path d="M135.869 26.912L142.883 26.912C143.933 26.912 144.783 26.0614 144.783 25.0122L144.783 22.4037C144.783 21.3545 143.933 20.5039 142.883 20.5039L135.869 20.5039L135.869 26.912Z" fill="#A259FF"/>
<path d="M131.923 22.9642L131.923 31.4401C131.923 32.4893 132.774 33.3398 133.823 33.3398L136.431 33.3398C137.481 33.3398 138.331 32.4893 138.331 31.4401L138.331 22.9642L131.923 22.9642Z" fill="#0ACF83"/>
<path d="M135.868 20.5041L127.392 20.5041C126.343 20.5041 125.492 21.3546 125.492 22.4038L125.492 25.0123C125.492 26.0616 126.343 26.9121 127.392 26.9121L135.868 26.9121L135.868 20.5041Z" fill="#F84C6F"/>
<rect x="131.921" y="20.4805" width="6.42968" height="6.42968" fill="#F3A042"/>
<path d="M19.7962 15.8383C20.7578 15.8383 21.5763 16.0122 22.2515 16.36C22.9472 16.6874 23.5099 17.1273 23.9395 17.6798C24.3897 18.2322 24.7171 18.8665 24.9217 19.5827C25.1263 20.2988 25.2286 21.0354 25.2286 21.7925V31H21.5456V22.836C21.5456 22.4063 21.5149 21.9562 21.4535 21.4856C21.3921 21.015 21.2591 20.5955 21.0545 20.2272C20.8499 19.8384 20.5635 19.5213 20.1952 19.2758C19.8473 19.0302 19.3767 18.9075 18.7833 18.9075C18.2104 18.9075 17.7194 19.0302 17.3101 19.2758C16.9009 19.5213 16.5633 19.8384 16.2973 20.2272C16.0313 20.616 15.8369 21.0559 15.7142 21.5469C15.5914 22.0176 15.53 22.4882 15.53 22.9588V31H11.847V22.0994C11.847 21.1786 11.6219 20.4216 11.1718 19.8282C10.7421 19.2144 10.0567 18.9075 9.11544 18.9075C8.56299 18.9075 8.08215 19.0302 7.67293 19.2758C7.26371 19.5008 6.9261 19.7975 6.6601 20.1658C6.41457 20.5341 6.22019 20.9638 6.07696 21.4549C5.9542 21.9255 5.89281 22.4063 5.89281 22.8974V31H2.2098V16.268H5.70866V18.6312H5.77004C5.93373 18.2629 6.14858 17.9151 6.41457 17.5877C6.70103 17.2603 7.02841 16.9636 7.39671 16.6977C7.78547 16.4317 8.22538 16.227 8.71645 16.0838C9.20752 15.9201 9.74974 15.8383 10.3431 15.8383C11.4889 15.8383 12.4404 16.0941 13.1974 16.6056C13.9545 17.1171 14.5376 17.7923 14.9469 18.6312C15.4379 17.7309 16.0927 17.0455 16.9111 16.5749C17.7296 16.0838 18.6913 15.8383 19.7962 15.8383ZM38.6608 29.1278H38.5687C38.2004 29.7826 37.607 30.3248 36.7886 30.7545C35.9701 31.1637 35.0392 31.3683 33.9956 31.3683C33.4023 31.3683 32.7782 31.2865 32.1234 31.1228C31.4892 30.9795 30.8958 30.734 30.3433 30.3862C29.8113 30.0179 29.3612 29.5473 28.9929 28.9743C28.6451 28.381 28.4711 27.6546 28.4711 26.7952C28.4711 25.6903 28.778 24.8105 29.3919 24.1557C30.0262 23.501 30.8344 22.9997 31.8165 22.6518C32.7987 22.304 33.8831 22.0789 35.0699 21.9766C36.2771 21.8539 37.4536 21.7925 38.5994 21.7925V21.4242C38.5994 20.5034 38.2618 19.8282 37.5866 19.3985C36.9318 18.9484 36.1441 18.7233 35.2233 18.7233C34.4458 18.7233 33.699 18.887 32.9828 19.2144C32.2667 19.5418 31.6733 19.9407 31.2027 20.4114L29.2998 18.1709C30.1387 17.3933 31.1004 16.8102 32.1848 16.4214C33.2897 16.0327 34.4049 15.8383 35.5302 15.8383C36.8397 15.8383 37.914 16.0224 38.7529 16.3907C39.6122 16.759 40.2874 17.2399 40.7785 17.8332C41.2696 18.4266 41.6072 19.0916 41.7913 19.8282C41.996 20.5648 42.0983 21.3014 42.0983 22.038V31H38.6608V29.1278ZM38.5994 24.2785H37.7707C37.1774 24.2785 36.5533 24.3092 35.8985 24.3706C35.2438 24.4115 34.6402 24.524 34.0877 24.7082C33.5353 24.8719 33.0749 25.1174 32.7066 25.4448C32.3383 25.7517 32.1541 26.1814 32.1541 26.7338C32.1541 27.0817 32.2258 27.3784 32.369 27.6239C32.5327 27.849 32.7373 28.0331 32.9828 28.1764C33.2283 28.3196 33.5046 28.4219 33.8115 28.4833C34.1184 28.5447 34.4253 28.5754 34.7322 28.5754C36.0008 28.5754 36.9625 28.2377 37.6173 27.5625C38.272 26.8873 38.5994 25.9666 38.5994 24.8003V24.2785ZM46.3891 16.268H49.888V18.6312H49.9493C50.2767 17.8946 50.8394 17.2501 51.6374 16.6977C52.4558 16.1247 53.4175 15.8383 54.5224 15.8383C55.4841 15.8383 56.3025 16.0122 56.9777 16.36C57.6734 16.6874 58.2361 17.1273 58.6658 17.6798C59.1159 18.2322 59.4433 18.8665 59.6479 19.5827C59.8525 20.2988 59.9548 21.0354 59.9548 21.7925V31H56.2718V22.836C56.2718 22.4063 56.2411 21.9562 56.1798 21.4856C56.1184 21.015 55.9854 20.5955 55.7808 20.2272C55.5762 19.8384 55.2897 19.5213 54.9214 19.2758C54.5736 19.0302 54.103 18.9075 53.5096 18.9075C52.9162 18.9075 52.4047 19.0302 51.975 19.2758C51.5453 19.5008 51.1872 19.7975 50.9008 20.1658C50.6348 20.5341 50.4302 20.9638 50.287 21.4549C50.1437 21.9255 50.0721 22.4063 50.0721 22.8974V31H46.3891V16.268ZM73.3988 29.1278H73.3067C72.9384 29.7826 72.345 30.3248 71.5266 30.7545C70.7081 31.1637 69.7772 31.3683 68.7336 31.3683C68.1403 31.3683 67.5162 31.2865 66.8614 31.1228C66.2272 30.9795 65.6338 30.734 65.0813 30.3862C64.5493 30.0179 64.0992 29.5473 63.7309 28.9743C63.3831 28.381 63.2091 27.6546 63.2091 26.7952C63.2091 25.6903 63.516 24.8105 64.1299 24.1557C64.7642 23.501 65.5724 22.9997 66.5545 22.6518C67.5367 22.304 68.6211 22.0789 69.8079 21.9766C71.0151 21.8539 72.1916 21.7925 73.3374 21.7925V21.4242C73.3374 20.5034 72.9998 19.8282 72.3246 19.3985C71.6698 18.9484 70.8821 18.7233 69.9613 18.7233C69.1838 18.7233 68.437 18.887 67.7208 19.2144C67.0047 19.5418 66.4113 19.9407 65.9407 20.4114L64.0378 18.1709C64.8767 17.3933 65.8384 16.8102 66.9228 16.4214C68.0277 16.0327 69.1429 15.8383 70.2682 15.8383C71.5777 15.8383 72.652 16.0224 73.4909 16.3907C74.3502 16.759 75.0254 17.2399 75.5165 17.8332C76.0076 18.4266 76.3452 19.0916 76.5293 19.8282C76.734 20.5648 76.8363 21.3014 76.8363 22.038V31H73.3988V29.1278ZM73.3374 24.2785H72.5087C71.9154 24.2785 71.2913 24.3092 70.6365 24.3706C69.9818 24.4115 69.3782 24.524 68.8257 24.7082C68.2733 24.8719 67.8129 25.1174 67.4446 25.4448C67.0763 25.7517 66.8921 26.1814 66.8921 26.7338C66.8921 27.0817 66.9638 27.3784 67.107 27.6239C67.2707 27.849 67.4753 28.0331 67.7208 28.1764C67.9664 28.3196 68.2426 28.4219 68.5495 28.4833C68.8564 28.5447 69.1633 28.5754 69.4702 28.5754C70.7388 28.5754 71.7005 28.2377 72.3553 27.5625C73.01 26.8873 73.3374 25.9666 73.3374 24.8003V24.2785ZM96.1047 16.268V29.6803C96.1047 31.0102 95.941 32.2072 95.6136 33.2712C95.2862 34.3556 94.7747 35.2662 94.079 36.0028C93.4038 36.7598 92.5444 37.343 91.5009 37.7522C90.4574 38.1614 89.2195 38.366 87.7872 38.366C87.1938 38.366 86.5595 38.3149 85.8843 38.2126C85.2296 38.1103 84.5748 37.9568 83.92 37.7522C83.2858 37.5476 82.6719 37.2918 82.0785 36.9849C81.4852 36.678 80.9532 36.3301 80.4826 35.9414L82.6003 33.087C83.3164 33.7623 84.1247 34.2738 85.025 34.6216C85.9252 34.9899 86.8358 35.1741 87.7565 35.1741C88.6363 35.1741 89.3729 35.0411 89.9663 34.7751C90.5802 34.5295 91.061 34.1817 91.4088 33.7316C91.7771 33.2814 92.0329 32.7494 92.1761 32.1356C92.3398 31.5218 92.4217 30.8465 92.4217 30.1099V29.0357H92.3603C91.8283 29.7519 91.1428 30.3043 90.3039 30.6931C89.4855 31.0614 88.5647 31.2455 87.5417 31.2455C86.4368 31.2455 85.4342 31.0409 84.5339 30.6317C83.6336 30.2225 82.8663 29.67 82.232 28.9743C81.6182 28.2787 81.1373 27.4705 80.7895 26.5497C80.4417 25.6085 80.2677 24.6161 80.2677 23.5726C80.2677 22.5086 80.4314 21.506 80.7588 20.5648C81.1066 19.6236 81.5875 18.8052 82.2013 18.1095C82.8356 17.4138 83.5927 16.8613 84.4725 16.4521C85.3728 16.0429 86.3754 15.8383 87.4803 15.8383C88.5238 15.8383 89.4957 16.0531 90.396 16.4828C91.2963 16.9125 92.0124 17.5775 92.5444 18.4778H92.6058V16.268H96.1047ZM88.2476 18.8461C87.5724 18.8461 86.9688 18.9688 86.4368 19.2144C85.9252 19.4599 85.4853 19.7975 85.117 20.2272C84.7692 20.6364 84.493 21.1275 84.2883 21.7004C84.1042 22.2733 84.0121 22.8872 84.0121 23.5419C84.0121 24.1353 84.1042 24.7082 84.2883 25.2606C84.493 25.8131 84.7692 26.3144 85.117 26.7645C85.4853 27.1942 85.9252 27.5421 86.4368 27.8081C86.9688 28.0741 87.5621 28.2071 88.2169 28.2071C88.8921 28.2071 89.4957 28.0843 90.0277 27.8388C90.5802 27.5728 91.0405 27.2249 91.4088 26.7952C91.7976 26.3655 92.0943 25.8745 92.2989 25.322C92.5035 24.7491 92.6058 24.1557 92.6058 23.5419C92.6058 22.9076 92.5035 22.304 92.2989 21.7311C92.0943 21.1582 91.7976 20.6569 91.4088 20.2272C91.0405 19.7975 90.5904 19.4599 90.0584 19.2144C89.5264 18.9688 88.9228 18.8461 88.2476 18.8461ZM110.893 22.1608C110.893 21.6902 110.821 21.24 110.678 20.8103C110.555 20.3807 110.351 20.0021 110.064 19.6748C109.778 19.3474 109.41 19.0916 108.959 18.9075C108.53 18.7028 108.018 18.6005 107.425 18.6005C106.32 18.6005 105.379 18.9382 104.601 19.6134C103.844 20.2681 103.425 21.1173 103.343 22.1608H110.893ZM114.576 23.8181C114.576 23.9818 114.576 24.1455 114.576 24.3092C114.576 24.4729 114.566 24.6366 114.545 24.8003H103.343C103.384 25.3323 103.517 25.8233 103.742 26.2735C103.987 26.7032 104.305 27.0817 104.693 27.4091C105.082 27.716 105.522 27.9615 106.013 28.1457C106.504 28.3298 107.016 28.4219 107.548 28.4219C108.468 28.4219 109.246 28.2582 109.88 27.9308C110.515 27.583 111.036 27.1124 111.445 26.519L113.901 28.4833C112.448 30.4475 110.341 31.4297 107.578 31.4297C106.433 31.4297 105.379 31.2558 104.417 30.9079C103.455 30.5396 102.617 30.0281 101.9 29.3733C101.205 28.7186 100.652 27.9206 100.243 26.9794C99.8542 26.0177 99.6599 24.9333 99.6599 23.7261C99.6599 22.5393 99.8542 21.4651 100.243 20.5034C100.652 19.5213 101.205 18.6926 101.9 18.0174C102.596 17.3217 103.414 16.7897 104.356 16.4214C105.317 16.0327 106.351 15.8383 107.456 15.8383C108.479 15.8383 109.42 16.0122 110.279 16.36C111.159 16.6874 111.916 17.1887 112.55 17.8639C113.185 18.5187 113.676 19.3474 114.024 20.35C114.392 21.3321 114.576 22.4882 114.576 23.8181Z" fill="black"/>
</svg>
