<svg width="26" height="27" viewBox="0 0 26 27" fill="none" xmlns="http://www.w3.org/2000/svg">
<path d="M0.280273 8.72922C0.280273 4.37096 3.81334 0.837891 8.17159 0.837891H26.0001V18.6664C26.0001 23.0247 22.4671 26.5578 18.1088 26.5578H8.1716C3.81335 26.5578 0.280273 23.0247 0.280273 18.6664V8.72922Z" fill="black"/>
<path d="M16.3289 12.6747V5.9525C16.3289 4.90329 15.4784 4.05273 14.4292 4.05273H11.8207C10.7715 4.05273 9.9209 4.90329 9.9209 5.9525V12.6747H16.3289Z" fill="#00C1F3"/>
<path d="M13.8689 16.912L20.8834 16.912C21.9326 16.912 22.7832 16.0614 22.7832 15.0122L22.7832 12.4037C22.7832 11.3545 21.9327 10.5039 20.8834 10.5039L13.8689 10.5039L13.8689 16.912Z" fill="#A259FF"/>
<path d="M9.92301 12.9642L9.92301 21.4401C9.92301 22.4893 10.7736 23.3398 11.8228 23.3398L14.4313 23.3398C15.4805 23.3398 16.3311 22.4893 16.3311 21.4401L16.3311 12.9642L9.92301 12.9642Z" fill="#0ACF83"/>
<path d="M13.8678 10.5041L5.39195 10.5041C4.34274 10.5041 3.49219 11.3546 3.49219 12.4038L3.49219 15.0123C3.49219 16.0616 4.34274 16.9121 5.39195 16.9121L13.8678 16.9121L13.8678 10.5041Z" fill="#F84C6F"/>
<rect x="9.9209" y="10.4805" width="6.42968" height="6.42968" fill="#F3A042"/>
</svg>
