<svg width="36" height="32" viewBox="0 0 36 32" fill="none" xmlns="http://www.w3.org/2000/svg">
<path d="M9.28103 29H3.16992C2.61764 29 2.16992 28.5523 2.16992 28V3C2.16992 2.44771 2.61764 2 3.16992 2H33.1699C33.7222 2 34.1699 2.44772 34.1699 3V29" stroke="white" stroke-width="2.54" stroke-linecap="round"/>
<path d="M8.16992 12.27C8.87132 12.27 9.43992 11.7014 9.43992 11C9.43992 10.2986 8.87132 9.73 8.16992 9.73V12.27ZM3.16992 12.27H8.16992V9.73H3.16992V12.27Z" fill="white"/>
<path d="M28.1699 9.73C27.4685 9.73 26.8999 10.2986 26.8999 11C26.8999 11.7014 27.4685 12.27 28.1699 12.27V9.73ZM28.1699 12.27H33.1699V9.73H28.1699V12.27Z" fill="white"/>
<rect x="5.16992" y="5" width="2.5" height="2.5" fill="white"/>
<circle cx="18.1699" cy="18" r="8.73" stroke="white" stroke-width="2.54"/>
<path d="M29.7719 30.898C30.2679 31.394 31.072 31.394 31.5679 30.898C32.0639 30.4021 32.0639 29.5979 31.5679 29.102L29.7719 30.898ZM23.2719 24.398L29.7719 30.898L31.5679 29.102L25.0679 22.602L23.2719 24.398Z" fill="white"/>
<rect x="14.1699" y="15" width="2" height="7" fill="white"/>
<rect x="17.1699" y="15" width="2" height="6" fill="white"/>
<rect x="20.1699" y="15" width="2" height="6" fill="white"/>
<rect x="8.16992" y="5" width="2.5" height="2.5" fill="white"/>
<rect x="11.1699" y="5" width="2.5" height="2.5" fill="white"/>
</svg>
