<svg width="15" height="16" viewBox="0 0 15 16" fill="none" xmlns="http://www.w3.org/2000/svg">
<path d="M12.6302 2.53187C14.0065 3.91089 14.8575 5.7158 14.8556 7.68389C14.8517 11.6857 11.5027 14.9625 7.46813 14.9586C6.25447 14.9574 5.07394 14.6282 3.99204 14.0695L0.153305 15.0498L1.17386 11.2786C0.55169 10.1956 0.192099 8.94875 0.193387 7.63669C0.197318 3.63491 3.48069 0.357985 7.48247 0.361915C9.45055 0.363848 11.2867 1.15289 12.6302 2.53187ZM7.46935 13.7121C10.8151 13.7154 13.6059 10.9956 13.6092 7.68267C13.6108 6.04259 12.9234 4.53305 11.7765 3.38387C10.6296 2.23469 9.12132 1.60998 7.51404 1.6084C4.16829 1.60512 1.4431 4.32497 1.43984 7.63791C1.43872 8.78597 1.76563 9.90154 2.35509 10.8862L2.51888 11.1159L1.89346 13.3458L4.19017 12.7248L4.38685 12.8562C5.33755 13.4148 6.38691 13.7111 7.46935 13.7121ZM10.8195 9.1888C10.9835 9.28736 11.1146 9.32029 11.1473 9.41873C11.2129 9.4844 11.2125 9.84521 11.0481 10.2715C10.8837 10.6977 10.1617 11.0906 9.8336 11.1231C9.24308 11.2209 8.78389 11.1877 7.63636 10.6617C5.80025 9.8727 4.6212 8.03466 4.52289 7.93616C4.42462 7.80485 3.80223 6.9514 3.80313 6.03296C3.804 5.14732 4.26364 4.72135 4.42784 4.52471C4.59204 4.32806 4.78888 4.29545 4.92009 4.29558C5.01849 4.29568 5.1497 4.2958 5.2481 4.2959C5.37931 4.29603 5.51054 4.26336 5.6742 4.62433C5.80505 4.98528 6.1978 5.87131 6.2305 5.96974C6.26321 6.06818 6.29591 6.16662 6.23018 6.29776C5.90149 6.98627 5.5079 6.95308 5.70439 7.28129C6.42483 8.49565 7.11324 8.92274 8.19517 9.44863C8.35908 9.5472 8.45752 9.51449 8.58882 9.41622C8.68736 9.28511 9.04859 8.85904 9.14716 8.69513C9.27856 8.49845 9.40973 8.53138 9.57367 8.59715C9.73762 8.66291 10.6228 9.0902 10.8195 9.1888Z" fill="white"/>
</svg>
