<svg width="18" height="18" viewBox="0 0 18 18" fill="none" xmlns="http://www.w3.org/2000/svg">
<path d="M15.456 6.88591C15.461 7.01091 15.463 7.13791 15.463 7.26491C15.463 11.1269 12.524 15.5799 7.14699 15.5799C5.55867 15.5817 4.0034 15.1263 2.66699 14.2679C2.89599 14.2949 3.12699 14.3079 3.36399 14.3079C4.73399 14.3079 5.99399 13.8409 6.99399 13.0559C6.38397 13.0449 5.7927 12.8432 5.3031 12.4792C4.8135 12.1151 4.45014 11.6069 4.26399 11.0259C4.44199 11.0599 4.62499 11.0779 4.81399 11.0779C5.07999 11.0779 5.33799 11.0429 5.58399 10.9749C4.92247 10.8415 4.3275 10.4832 3.90007 9.96101C3.47263 9.43879 3.23906 8.78475 3.23899 8.10991V8.07591C3.63299 8.29391 4.08499 8.42591 4.56299 8.44191C3.94361 8.02882 3.50513 7.39502 3.33696 6.66977C3.16879 5.94451 3.28361 5.18242 3.65799 4.53891C4.39171 5.44226 5.30737 6.18105 6.34542 6.70722C7.38346 7.23339 8.52064 7.53516 9.68299 7.59291C9.58402 7.16415 9.58289 6.71861 9.67969 6.28936C9.77649 5.8601 9.96872 5.45817 10.2421 5.11338C10.5155 4.7686 10.8631 4.48982 11.259 4.29775C11.6549 4.10568 12.089 4.00525 12.529 4.00391C13.369 4.00391 14.13 4.35891 14.662 4.92691C15.3165 4.79846 15.9442 4.55901 16.518 4.21891C16.3002 4.89577 15.8439 5.47043 15.234 5.83591C15.8132 5.76733 16.3788 5.61227 16.912 5.37591C16.522 5.95991 16.026 6.47391 15.456 6.88591Z" fill="white"/>
</svg>
