<svg width="18" height="18" viewBox="0 0 18 18" fill="none" xmlns="http://www.w3.org/2000/svg">
<path d="M8.99491 4.00295C8.99491 4.00295 4.23091 4.00295 3.03491 4.31395C2.71413 4.40737 2.42237 4.58085 2.18709 4.81806C1.9518 5.05527 1.78071 5.34842 1.68991 5.66995C1.37891 6.86495 1.37891 9.33995 1.37891 9.33995C1.37891 9.33995 1.37891 11.826 1.68891 13.003C1.77877 13.3242 1.94995 13.6168 2.1859 13.8526C2.42185 14.0884 2.71461 14.2593 3.03591 14.349C4.24091 14.669 8.99591 14.669 8.99591 14.669C8.99591 14.669 13.7679 14.669 14.9639 14.359C15.2856 14.2719 15.5786 14.1015 15.8133 13.865C16.048 13.6285 16.2162 13.3342 16.3009 13.012C16.6209 11.826 16.6209 9.34995 16.6209 9.34995C16.6209 9.34995 16.6309 6.86395 16.3009 5.66895C16.2158 5.34795 16.0473 5.05518 15.8125 4.82036C15.5777 4.58554 15.2849 4.41704 14.9639 4.33195C13.7679 4.00195 8.99491 4.00295 8.99491 4.00295ZM7.47991 7.05295L11.4439 9.34095L7.47991 11.62V7.05295Z" fill="white"/>
</svg>
